<svg width="80" height="66" viewBox="0 0 80 66" fill="none" xmlns="http://www.w3.org/2000/svg">
<path d="M68 62C61.28 62 56 56.94 56 50.5C56 44.06 61.28 39 68 39C74.72 39 80 44.06 80 50.5C80 56.94 74.72 62 68 62ZM68 43.6C63.92 43.6 60.8 46.59 60.8 50.5C60.8 54.41 63.92 57.4 68 57.4C72.08 57.4 75.2 54.41 75.2 50.5C75.2 46.59 72.08 43.6 68 43.6Z" fill="black"/>
<path d="M68 25C61.28 25 56 19.94 56 13.5C56 7.06 61.28 2 68 2C74.72 2 80 7.06 80 13.5C80 19.94 74.72 25 68 25ZM68 6.6C63.92 6.6 60.8 9.59 60.8 13.5C60.8 17.41 63.92 20.4 68 20.4C72.08 20.4 75.2 17.41 75.2 13.5C75.2 9.59 72.08 6.6 68 6.6Z" fill="black"/>
<path d="M12 46C5.28 46 0 40.94 0 34.5C0 28.06 5.28 23 12 23C18.72 23 24 28.06 24 34.5C24 40.94 18.72 46 12 46ZM12 27.6C7.92 27.6 4.8 30.59 4.8 34.5C4.8 38.41 7.92 41.4 12 41.4C16.08 41.4 19.2 38.41 19.2 34.5C19.2 30.59 16.08 27.6 12 27.6Z" fill="black"/>
<path d="M21.5989 39L59 47.6096L56.4011 50L19 41.3904L21.5989 39Z" fill="black"/>
<path d="M56.4038 18L59 21.0457L21.5962 32L19 28.9543L56.4038 18Z" fill="black"/>
</svg>
